<?xml version="1.0" encoding="UTF-8"?>
<svg id="katman_1" data-name="katman 1" xmlns="http://www.w3.org/2000/svg" viewBox="0 0 518.78 689.62">
  <defs>
    <style>
      .cls-1 {
        fill: #fff;
      }
    </style>
  </defs>
  <path class="cls-1" d="M144.74,130.25c-2.56.85-6.3-4.11-7.72-6.26,1.91-3.31,4.37-5.03,7.21-7.84l7.58,7.84c-1.84,2.03-3.39,5.04-7.07,6.26Z"/>
  <path class="cls-1" d="M144.51,574.48c-2.58-2.16-5.17-4.59-7.3-7.89l6.97-6.57,8.03,7.73-7.69,6.73Z"/>
  <rect class="cls-1" x="372.26" y="559.79" width="10.64" height="10.6" transform="translate(-291.47 445.65) rotate(-46.13)"/>
  <polygon class="cls-1" points="378.19 133.34 371.03 125.33 377.66 118.65 384.88 125.39 378.19 133.34"/>
  <g>
    <g>
      <path class="cls-1" d="M267.34,539.41c-3.71-2.63-7.55-2.08-10.67.12l-20.96,14.83-20.53-16.12,40.7-29.62c4.24-3.09,8.09-2.55,12.22.48l38.9,28.63-19.78,15.74-19.88-14.06Z"/>
      <polygon class="cls-1" points="287.02 674.3 261.9 689.62 237.36 674.25 252.82 672.83 233.43 657.19 290.72 657.23 270.07 672.66 287.02 674.3"/>
      <path class="cls-1" d="M261.2,553.59l-35.37,24.86c-2.43-1.41-3.89-3.66-5.05-7.04l41.26-29.52,40.11,29.08c-.44,3.3-2.27,6-5.03,7.88l-35.91-25.26Z"/>
      <path class="cls-1" d="M297.72,600.71l-36.35-24.42-35.91,24.42c-2.59-2.14-4.08-4.5-4.35-7.44l40.85-27.36,40.2,27c-.44,3.36-1.91,5.57-4.43,7.8Z"/>
      <path class="cls-1" d="M264.07,620.44l20.44,15.07-22.86,16.43-22.75-16.55,21.47-16.24c1.31-3.51,4.05-2.38,3.7,1.29Z"/>
      <path class="cls-1" d="M264.07,620.44l-3.7-1.29-21.02-15.36,22.23-15.82,22.55,15.94-18.01,13.28c-1.32.97-1.98,2.04-2.05,3.26Z"/>
    </g>
    <g>
      <polygon class="cls-1" points="306.56 152.23 261.7 187.47 216 152.83 236.62 137.13 261.13 154.03 285.22 137.37 306.56 152.23"/>
      <polygon class="cls-1" points="289.82 32.79 232.59 32.99 251.65 16.88 237.72 15.81 261.94 0 285.58 16.03 268.88 16.78 289.82 32.79"/>
      <path class="cls-1" d="M301.42,119.79l-39.78,28.75-37.08-26.87c-2.23-1.61-3.63-3.5-3.02-5.75.5-1.81,3.15-4.77,5.35-3.28l34.5,23.48,34.87-23.54c2.5-1.69,6.93,3.95,5.15,7.21Z"/>
      <path class="cls-1" d="M299.13,98.07l-37.63,27.46-36.96-26.01c-2.11-1.49-3.5-4.19-2.93-5.89.78-2.3,4.28-4.99,6.55-3.33l32.56,23.83,34.15-23.86c2.03-1.42,4.36-.28,5.32.97,1.5,1.96,1.71,4.8-1.06,6.82Z"/>
      <path class="cls-1" d="M264.1,70.25c.98,3.62-1.92,4.3-3.79,1.12l-22.44-16.09,22.59-17.2,24.37,17.8-20.73,14.37Z"/>
      <path class="cls-1" d="M260.3,71.37l3.79-1.12c.06,1.22.73,2.21,2.09,3.11l17.9,11.82-22.44,16.69c-8.69-4.03-15.17-9.84-22.77-16.01l21.43-14.49Z"/>
    </g>
    <path class="cls-1" d="M146.62,498.7l13.73,11.99-14.24,14.95,6.09,5.87c-1.87,3.19-4.33,5.65-7.51,8.26-3.13-1.95-5.26-4.21-7.94-7.31l7.58-6.34-15.4-14.64,13.48-12.87c.83-.79,3.29-.72,4.22.09Z"/>
    <path class="cls-1" d="M379.58,193.82l-2.53-.15-13.68-13.38,13-15.64-5.34-6.25,6.63-6.84,6.97,7.28-5.94,6.05c5.19,4.6,9.82,9.43,13.75,14.98l-12.86,13.94Z"/>
    <g>
      <path class="cls-1" d="M484.53,285.03c-12.34,1.49-24.82,2.08-37.45,1.77l-7.71-2.49-40.83,29.42,51.19.71,33.94,1.21-41.52,31.67,42.3,31.46-84.46.76,39.64,30.42-86.13.29,41.37,30.91-84.73.59c-1.97.01-2.44-1.01-3.92-2l-.54-2.83,125.98-90.03-124.67-90.59-.97-2.67,5.23-3.94c.33.87,1.16,1.38,2.66,1.38l79.29-.05c-1.93,4.87-6.23,7.25-10.03,10.28l-26.51,21.15h126.47c2.26-1.06,3.61,1.84,1.37,2.59Z"/>
      <path class="cls-1" d="M147.81,301.66l-63.62,45.9,87.45,61.4,44.35,31.93-87.65.32,39.46-29.94c-7.12-2.53-13.47-.67-20.14-.69l-44.58-.11-20.48-1.13,40.69-29.68-86.49-.67,42.12-31.4-40.69-31.99c4.15-1.33,7.55-1.45,11.19-1.48l73.98-.67-39.69-28.76c-2.22,1.29-2.4.92-.46-.93,24.03-.79,48.42-.99,73.18-.59.42,13.06-9.97,18.75-16.04,4.71-10.2-1.39-11.45-.34-3.78,3.15,3.76,4.28,8.11,6.94,13.06,7.98l-1.87,2.66Z"/>
      <path class="cls-1" d="M214.5,252.31c-.79,1.54-1.97,3.05-3.71,4.26l-37.59,26.18-25.38,18.91c-.06-1.01-.55-2.06-.9-1.93l-3.19,1.17-7.63-6.92c-3.73-3.39-9.04-4.33-12-8.64,5.74-.15,12.31-1.14,17.75.51l3.28,5.25c1.01,1.61,4.96,4.16,7,.65,1.1-1.88.45-6.36,3.59-7.7l-72.46-.3c-7.15,2.77-15.2,3.59-24.17,2.47-5.43.89-9.15,0-11.16-2.69.51-.55,1.34-1.12,2.79-1.12l115.77-.15-34.21-26.43c-1.73-1.34-3.38-2.35-5.26-2.31-3.45-.49-3.18-1.64.21-2.3l80.69-.22c1.85,0,3.13-.02,3.97-1.05,1.14.47,1.99,1.34,2.6,2.36Z"/>
      <path class="cls-1" d="M146.18,193.45l25.61,26.24,84.88-.49c-.56,1.73-1.28,1.6-2.96,1.61l-81.03.53-15.92,15.2-13.09,12.2-16.95-17.47-10.08-11.48,26.84-26.3c.81-2.36,1.95-2.41,2.7-.05Z"/>
      <path class="cls-1" d="M379.58,193.82l21.45,21.27c1.22,1.21,5.52,3.23,4.86,5.87l-27.59,27.86-15.14-14.19-13.75-12.32.08-1.91,14.25-13.96,13.31-12.78c.61-3.44,1.77-3.23,2.53.15Z"/>
      <path class="cls-1" d="M173.79,470.98l-.1,1.64c-1.1,0-2.36.16-3.5,1.32l-23.57,24.75c-1.54,2.72-2.63,2.45-4.22-.09-.19-1.92-1.41-3.29-3.01-4.9l-22.44-22.54,17.11-17.61c3.38-3.48,5.67-8.28,10.63-10.33l29.09,27.75Z"/>
      <path class="cls-1" d="M379.36,497.5c-.94,2.38-1.97,2.15-2.21-.43l-25.79-23.23-25.41-.25c-.79,0-1.45-.69-1.66-.95l23.81-.15c1.7-.01,1.93-1.11,2.43-1.6l26.99-26.63,28.66,27.71c-3.22,4.57-7.03,6.81-10.49,10.12l-16.33,15.41Z"/>
      <polygon class="cls-1" points="29.31 367.36 0 346.7 29.15 326.68 58.17 347.19 29.31 367.36"/>
      <polygon class="cls-1" points="490.02 367.22 461.19 346.56 490.45 326.79 518.78 347.04 490.02 367.22"/>
      <path class="cls-1" d="M146.18,193.45c-.84.14-1.69.2-2.7.05l-14.28-14.48,14.15-14.46-6.07-6.98c2.06-2.59,4.38-5.05,7.58-6.7l6.99,7.12-5.98,6.67,13.54,14.72-13.23,14.06Z"/>
      <path class="cls-1" d="M379.36,497.5l13.81,13.72-14.39,14.6,6.38,6.05c-1.85,3.01-4.3,5.02-7.28,7.94-3.07-1.99-5.04-4.59-7.66-7.74l6.8-6.5-14.2-14.17,14.32-14.32,2.21.43Z"/>
      <polygon class="cls-1" points="128.46 440.71 77.6 441.02 102.32 421.4 128.46 440.71"/>
      <polygon class="cls-1" points="444.81 251.45 419.93 270.15 394.15 251.79 444.81 251.45"/>
      <polygon class="cls-1" points="127.24 251.22 127.02 253.52 103.49 269.97 78.87 251.24 127.24 251.22"/>
      <polygon class="cls-1" points="444.68 441.45 396.48 441.42 420.17 422.98 444.68 441.45"/>
      <path class="cls-1" d="M80.88,408.09c.35.76.58,1.41.35,1.7-1.45,1.84-45.07,1.39-46.73-.26-.12-.12.25-.74.76-1.51l22.27-16.73,23.36,16.79Z"/>
      <path class="cls-1" d="M47.93,283.52l35.33.22c-.47.43-.07,1.44.46.93l-23.9,17.14-22.72-17.7c4.31-1.78,7.58-.62,10.83-.6Z"/>
      <polygon class="cls-1" points="487.21 409.54 440.31 409.71 464.3 391.28 487.21 409.54"/>
      <path class="cls-1" d="M484.53,285.03l-21.71,16.39-18.79-14.07c-1.74-1.31-3.03-2.31-4.66-3.04l42.33-.73c1.48-.03,2.45.81,2.82,1.45Z"/>
      <path class="cls-1" d="M80.88,408.09c.96.39,1.96.95,1.07,2.74h-48.15c-.82-1.81.29-2.54,1.45-2.8-.13.99.76,1.54,2.24,1.54h40.77c1.5,0,2.37-.59,2.62-1.48Z"/>
      <g>
        <path class="cls-1" d="M349.49,220.4c2.52.42,2.46,1.45-.08,1.91l-38.14,27.37c1.76,3.22.02,4.53-5.23,3.94l.53,2.81c-5.03,2.9-9.31,6.15-12.83,9.73l110.21,77.89c2.16,1.58,1.53,3.58.55,5.72l-110.34,77.69c3.19,3.35,7.2,6.39,12.04,9.12l.04,3.18c2.89-1.49,3.89-1.37,3.92,2l40.37,29.15c.56.81.94,1.53.73,1.88-.69,1.16-23.75.17-26.97-.13l-60.88.53,43.59,30.55,24.32-17.62,24.14,18.93-187.7-.23,24.26-18.6,24.42,17.87,42.4-30.83-85.15-.61c-2.57.08-2.48-.98.1-1.64l60.01-42.86-115.5-80.59,115.89-81.35-19.69-13.88c-3.11,1.08-3.38.83-2.6-2.36l-39.21-28.59c27.68-.73,55.68-1.44,83.99-2.14l-39.78-28.72-23.81,16.75-24.83-18.7,186.9.09-24.6,18.43-24.87-17.04-40.57,30.29,84.38.08Z"/>
        <g>
          <path class="cls-1" d="M309.26,312.45l-23.1,16.9c-1.7,1.24-3.66,1.86-3.76,4.05l-2.45,1.5-19.28-13.15-17.86,12.41-3.04-1.07-3.06,1.02c-1.44-.25-22.41-15.66-23.76-17.04-2.22-2.27-2.18-2.63.42-4.92l2.58-2.32c1.26,2.11,3.66,1.58,6.36,1.61l86.96,1.01Z"/>
          <path class="cls-1" d="M240.74,361.65l21.03,13.9,20.24-14.53,25.51,20.65-94.13.3c6.39-7.66,14.74-11.25,21.93-17.09,1.72-1.4,3.74-2.12,5.43-3.22Z"/>
          <g>
            <path class="cls-1" d="M282.4,333.4l18.81,13.76-19.21,13.86c.49.9,1.13,2.31.6,2.8-2.3,2.09-18.92,13.93-20.69,14.04-1.79.11-18.64-10.98-21.06-12.99l-.11-3.22-20.66-14.63,7.94-5.83,11.74-8.09,20.82-14.57,21.81,14.88Z"/>
            <polygon class="cls-1" points="260.73 361.89 240.86 346.88 260.53 332.01 280.79 346.92 260.73 361.89"/>
          </g>
        </g>
      </g>
    </g>
  </g>
</svg>